<?xml version="1.0" encoding="UTF-8"?>
<svg width="16px" height="16px" viewBox="0 0 16 16" version="1.1" xmlns="http://www.w3.org/2000/svg" xmlns:xlink="http://www.w3.org/1999/xlink">
    <!-- Generator: Sketch 52.6 (67491) - http://www.bohemiancoding.com/sketch -->
    <title>np_waiting_99631_000000</title>
    <desc>Created with Sketch.</desc>
    <g id="Component-Status-Mockup" stroke="none" stroke-width="1" fill="none" fill-rule="evenodd">
        <g id="cs-queue" fill="#CED3D4">
            <g id="np_waiting_99631_000000" transform="translate(7.909091, 8.000000) scale(-1, 1) translate(-7.909091, -8.000000) ">
                <path d="M5.34509091,7.94527273 C5.34509091,8.49783636 4.89765455,8.94527273 4.34509091,8.94527273 C3.79323636,8.94527273 3.34509091,8.49783636 3.34509091,7.94527273 C3.34509091,7.39341818 3.79323636,6.94527273 4.34509091,6.94527273 C4.89765455,6.94527273 5.34509091,7.39341818 5.34509091,7.94527273" id="Path"></path>
                <path d="M8.92763636,7.94527273 C8.92763636,8.49783636 8.47949091,8.94527273 7.92763636,8.94527273 C7.37507273,8.94527273 6.92763636,8.49783636 6.92763636,7.94527273 C6.92763636,7.39341818 7.37507273,6.94527273 7.92763636,6.94527273 C8.47949091,6.94527273 8.92763636,7.39341818 8.92763636,7.94527273" id="Path"></path>
                <path d="M12.5092727,7.94527273 C12.5092727,8.49783636 12.0611273,8.94527273 11.5092727,8.94527273 C10.9567091,8.94527273 10.5092727,8.49783636 10.5092727,7.94527273 C10.5092727,7.39341818 10.9567091,6.94527273 11.5092727,6.94527273 C12.0611273,6.94527273 12.5092727,7.39341818 12.5092727,7.94527273" id="Path"></path>
                <path d="M7.87290909,0.163345455 C3.54545455,0.163345455 0.0185454545,3.69098182 0.0185454545,8.01843636 C0.0185454545,12.3458909 3.54545455,15.8728 7.87290909,15.8728 C12.2003636,15.8728 15.7458182,12.3635273 15.7458182,8.01843636 C15.7458182,3.69098182 12.2181818,0.163345455 7.87290909,0.163345455 Z M7.87290909,14.7997091 C4.14563636,14.7997091 1.10945455,11.7635273 1.10945455,8.03625455 C1.10945455,4.30898182 4.14563636,1.2728 7.87290909,1.2728 C11.6001818,1.2728 14.6363636,4.30898182 14.6363636,8.03625455 C14.6548291,11.7635273 11.6178182,14.7997091 7.87290909,14.7997091 Z" id="Shape" fill-rule="nonzero"></path>
            </g>
        </g>
    </g>
</svg>