<?xml version="1.0" encoding="UTF-8"?>
<svg width="16px" height="16px" viewBox="0 0 16 16" version="1.1" xmlns="http://www.w3.org/2000/svg" xmlns:xlink="http://www.w3.org/1999/xlink">
    <!-- Generator: Sketch 52.6 (67491) - http://www.bohemiancoding.com/sketch -->
    <title>Shape</title>
    <desc>Created with Sketch.</desc>
    <g id="Component-Status-Mockup" stroke="none" stroke-width="1" fill="none" fill-rule="evenodd">
        <g id="Artboard" transform="translate(-466.000000, -39.000000)" fill="#26BD8B" fill-rule="nonzero">
            <path d="M479.656591,41.343409 C476.532046,38.2188637 471.467954,38.2188637 468.343409,41.343409 C465.218864,44.4679544 465.218864,49.5320456 468.343409,52.656591 C471.467954,55.7811363 476.532046,55.7811363 479.656591,52.656591 C482.781136,49.5320456 482.781136,44.4679544 479.656591,41.343409 Z M477.91963,45.5453406 C477.742504,45.7224657 477.562124,45.9028464 477.38499,46.0799799 L475.048843,48.4161276 C474.559087,48.904232 474.070983,49.3939872 473.583693,49.8812767 C473.271887,50.1930835 472.741343,50.1930835 472.428721,49.8812767 C472.332404,49.7849597 472.236904,49.6894598 472.143034,49.5939598 C471.467181,48.916477 470.792164,48.240624 470.117126,47.5631412 C469.794704,47.2407193 469.816749,46.7346654 470.117126,46.4081689 C470.415058,46.0833023 470.970092,46.1061623 471.272098,46.4081689 C471.368415,46.5044859 471.463915,46.5999859 471.557785,46.6954859 C472.041,47.1787007 472.52503,47.6651752 473.006615,48.14839 C473.772257,47.3827479 474.535433,46.6195715 475.300344,45.8546607 L476.765493,44.3895116 C477.087915,44.0670898 477.593969,44.0891348 477.920465,44.3895116 C478.244517,44.6898884 478.221657,45.2432921 477.919649,45.5452988 L477.91963,45.5453406 Z" id="Shape"></path>
        </g>
    </g>
</svg>